<svg width="32" height="32" viewBox="0 0 32 32" fill="none" xmlns="http://www.w3.org/2000/svg">
<path d="M28.6472 17.0232C28.6339 16.8684 28.4597 16.7829 28.3256 16.8613C27.6601 17.2504 26.9512 17.5279 26.2488 17.7345C25.6099 17.9227 24.9709 18.1107 24.3319 18.2987C23.0049 18.6892 21.678 19.0796 20.3513 19.4709C18.7611 19.9399 17.4263 20.3336 16 20.3336C14.5736 20.3336 13.2388 19.9399 11.6486 19.4709C10.3221 19.0796 8.99526 18.6892 7.66844 18.2988C7.02934 18.1108 6.39023 17.9227 5.75115 17.7345C5.04879 17.5279 4.3398 17.2504 3.67432 16.8613C3.54007 16.7828 3.36592 16.8684 3.35256 17.0233C3.12351 19.6793 2.94298 21.7727 3.01674 23.4152C3.09224 25.0967 3.43766 26.4731 4.4005 27.5845C5.37108 28.7051 6.66326 29.2037 8.27075 29.4391C9.82635 29.6667 11.8291 29.6667 14.3496 29.6667H17.6503C20.1707 29.6667 22.1735 29.6667 23.7291 29.4391C25.3365 29.2037 26.6287 28.7051 27.5993 27.5845C28.5621 26.4731 28.9075 25.0967 28.9831 23.4152C29.0568 21.7727 28.8763 19.6793 28.6472 17.0232Z" fill="currentColor" stroke="currentColor" />
<path d="M7.10468 7.00003C6.28592 6.99972 5.70463 6.99951 5.21391 7.11271C3.84047 7.42954 2.6694 8.41748 2.38527 9.797C2.28511 10.2833 2.35184 10.8339 2.42972 11.4767C2.55807 12.5396 2.90007 13.5477 3.65527 14.3337C4.33976 15.0463 5.25505 15.5033 6.31641 15.8157L12.0258 17.4967C13.7858 18.0151 14.8666 18.3333 16.0003 18.3333C17.1341 18.3333 18.215 18.0151 19.9749 17.4967L25.6843 15.8157C26.7458 15.5033 27.661 15.0463 28.3455 14.3337C29.1007 13.5477 29.4428 12.5396 29.5711 11.4766C29.649 10.8339 29.7157 10.2833 29.6155 9.797C29.3314 8.41748 28.1603 7.42954 26.7869 7.11271C26.2962 6.99951 25.7149 6.99972 24.8961 7.00003H7.10468Z" fill="currentColor" stroke="currentColor" />
<path fill-rule="evenodd" clip-rule="evenodd" d="M15.7899 2.00001C15.9305 2.00003 16.0719 2.00003 16.2117 2.00001C16.9593 1.99993 17.6431 1.99986 18.2124 2.07414C18.8469 2.15693 19.4693 2.34487 20.0311 2.80757C20.5776 3.25775 20.9001 3.83189 21.1455 4.43447C21.3764 5.00161 21.5852 5.71766 21.8261 6.54415L22.0429 7.22815L19.5021 8.03793L19.2891 7.3693L19.2844 7.35347C19.0199 6.44639 18.8484 5.8643 18.6756 5.43985C18.4952 4.99658 18.3464 4.7809 17.8673 4.71839C17.4912 4.6693 16.9839 4.66669 16.1372 4.66669H15.8644C15.0177 4.66669 14.5104 4.6693 14.1341 4.71839C13.6552 4.7809 13.5064 4.99658 13.326 5.43985C13.1533 5.86397 12.982 6.4455 12.7178 7.35137L12.5741 7.84983L10.0117 7.1115C10.0662 6.92237 10.1203 6.73311 10.1754 6.54417C10.4164 5.71767 10.6253 5.00161 10.8561 4.43447C11.1014 3.83189 11.424 3.25775 11.9705 2.80757C12.5322 2.34487 13.1547 2.15693 13.7892 2.07414C14.3585 1.99986 15.0423 1.99993 15.7899 2.00001Z" fill="currentColor" stroke="currentColor"/>
</svg>
