<svg width="32" height="32" viewBox="0 0 32 32" fill="none" xmlns="http://www.w3.org/2000/svg">
<path d="M7.70363 21.3333C6.2212 22.1769 5.33325 23.2513 5.33325 24.4211C5.33325 27.134 10.1089 29.3333 15.9999 29.3333C21.891 29.3333 26.6666 27.134 26.6666 24.4211C26.6666 23.2513 25.7786 22.1769 24.2962 21.3333" fill="currentColor" stroke="currentColor" stroke-width="1.5" stroke-linecap="round"/>
<path d="M17.3307 9.33334H14.6691C10.8425 9.33334 8.2626 13.4255 9.76996 17.104C9.97993 17.6165 10.4617 17.9487 10.9947 17.9487H11.9321C12.248 17.9487 12.5234 18.1736 12.6 18.4941L13.8067 23.5423C14.0583 24.5949 14.9626 25.3333 15.9999 25.3333C17.0373 25.3333 17.9415 24.5949 18.1931 23.5423L19.3998 18.4941C19.4765 18.1736 19.7519 17.9487 20.0678 17.9487H21.0051C21.5382 17.9487 22.0199 17.6165 22.2299 17.104C23.7373 13.4255 21.1573 9.33334 17.3307 9.33334Z" fill="currentColor" stroke="currentColor" stroke-width="1.5"/>
<path d="M19.3334 5.99999C19.3334 7.84094 17.841 9.33332 16.0001 9.33332C14.1591 9.33332 12.6667 7.84094 12.6667 5.99999C12.6667 4.15904 14.1591 2.66666 16.0001 2.66666C17.841 2.66666 19.3334 4.15904 19.3334 5.99999Z" fill="currentColor" stroke="currentColor" stroke-width="1.5"/>
</svg>
