<svg width="32" height="32" viewBox="0 0 32 32" fill="none" xmlns="http://www.w3.org/2000/svg">
<path d="M17.5969 10.6667H14.4031C9.81114 10.6667 6.71521 15.4408 8.52405 19.7325C8.77602 20.3303 9.35413 20.718 9.9938 20.718H11.1186C11.4977 20.718 11.8281 20.9803 11.9201 21.3543L13.3681 27.2437C13.67 28.4719 14.7551 29.3333 16 29.3333C17.2449 29.3333 18.33 28.4719 18.6319 27.2437L20.0799 21.3543C20.1719 20.9803 20.5023 20.718 20.8815 20.718H22.0063C22.6459 20.718 23.224 20.3303 23.476 19.7325C25.2848 15.4408 22.1888 10.6667 17.5969 10.6667Z" fill="currentColor" stroke="currentColor" stroke-width="1.5"/>
<path d="M16 10.6667C18.2091 10.6667 20 8.8758 20 6.66666C20 4.45752 18.2091 2.66666 16 2.66666C13.7909 2.66666 12 4.45752 12 6.66666C12 8.8758 13.7909 10.6667 16 10.6667Z" fill="currentColor" fill="currentColor" stroke="currentColor" stroke-width="1.5"/>
</svg>
