<svg width="203" height="157" viewBox="0 0 203 157" fill="none" xmlns="http://www.w3.org/2000/svg">
<path d="M-38.1551 1.72816C-38.419 1.09024 -38.1158 0.359177 -37.4779 0.0952607C-36.8399 -0.16864 -36.1089 0.134567 -35.845 0.772491L-38.1551 1.72816ZM88.6395 90.1203L87.4787 89.6566L88.6395 90.1203ZM202.177 150.829C202.41 151.479 202.071 152.194 201.421 152.427L190.83 156.22C190.18 156.453 189.465 156.114 189.232 155.465C188.999 154.815 189.337 154.099 189.987 153.866L199.402 150.495L196.03 141.08C195.798 140.43 196.136 139.715 196.786 139.482C197.436 139.249 198.151 139.588 198.384 140.237L202.177 150.829ZM-35.845 0.772491C-22.8722 32.131 -10.6664 58.6229 0.867551 79.4002C12.417 100.205 23.2328 115.168 33.3896 123.575C38.458 127.771 43.2958 130.278 47.9186 131.114C52.5102 131.945 56.981 131.146 61.3928 128.564C70.3161 123.343 79.0276 110.81 87.4787 89.6566L89.8003 90.5841C81.3197 111.811 72.351 125.049 62.6554 130.722C57.7577 133.588 52.6843 134.517 47.4734 133.574C42.2936 132.637 37.0703 129.867 31.7955 125.501C21.2659 116.785 10.2665 101.482 -1.31824 80.6136C-12.9184 59.717 -25.1658 33.1266 -38.1551 1.72816L-35.845 0.772491ZM87.4787 89.6566C95.8191 68.7802 100.369 52.4958 102.394 40.1859C104.424 27.8437 103.897 19.6125 102.214 14.7679C101.374 12.3508 100.284 10.8812 99.1877 10.11C98.132 9.36715 96.984 9.2062 95.7783 9.56958C93.2375 10.3353 90.2698 13.5286 88.355 19.1812C80.8228 41.4166 91.3874 98.0604 201.534 150.12L200.466 152.38C89.9775 100.159 77.8145 42.5049 85.9872 18.3791C87.9986 12.4413 91.3592 8.29036 95.0569 7.17592C96.9704 6.59923 98.9192 6.8642 100.626 8.06551C102.293 9.23856 103.632 11.2314 104.575 13.9473C106.459 19.3687 106.918 28.0856 104.861 40.5917C102.798 53.13 98.1862 69.5939 89.8003 90.5841L87.4787 89.6566Z" fill="#D1B06B"/>
</svg>
