<svg width="24" height="24" viewBox="0 0 24 24" fill="none" xmlns="http://www.w3.org/2000/svg">
<path d="M0.00181641 7.0293C0.00158203 10.9115 3.14736 14.0576 7.02967 14.0587C10.914 14.0575 14.0586 10.912 14.0586 7.0293C14.0586 3.14658 10.9124 -0.000370661 7.02973 0.000976995L0 0.00144574L0.00181641 7.0293Z" fill="#D8D6BF"/>
<path d="M23.9969 16.9704C23.9978 13.0886 20.8516 9.94096 16.9707 9.94096C13.0861 9.94096 9.94078 13.0893 9.94078 16.9713C9.94078 20.8523 13.0877 23.9997 16.9707 23.9987H24.0001L23.9969 16.9704ZM24.0001 3.9999C24.0001 6.20889 22.2091 7.99963 20.0002 7.99963C17.791 7.99963 16.0002 6.20889 16.0002 3.9999C16.0002 1.79074 17.791 0 20.0002 0C22.2091 0 24.0001 1.79074 24.0001 3.9999ZM6.9999 20.4996C6.9999 22.4323 5.43182 23.9996 3.49893 23.9996C1.56621 23.9996 0 22.4323 0 20.4996C0 18.5674 1.56621 16.9997 3.49916 16.9997C5.43211 16.9997 6.9999 18.5674 6.9999 20.4996Z" fill="#D8D6BF"/>
</svg>
