<svg width="24" height="24" viewBox="0 0 24 24" fill="none" xmlns="http://www.w3.org/2000/svg">
<g clip-path="url(#clip0_3995_2522)">
<path d="M11.2969 4.92188C11.2969 4.53417 11.6123 4.21875 12 4.21875C12.3877 4.21875 12.7031 4.53417 12.7031 4.92188V5.67188H16.9219V4.92188C16.9219 2.20795 14.7139 0 12 0C9.28608 0 7.07812 2.20795 7.07812 4.92188V11.2969H11.2969V4.92188Z" fill="#D8D6BF"/>
<path d="M11.2969 16.9219V12.7031H4.92188C4.53417 12.7031 4.21875 12.3877 4.21875 12C4.21875 11.6123 4.53417 11.2969 4.92188 11.2969H5.67188V7.07812H4.92188C2.20795 7.07812 0 9.28608 0 12C0 14.7139 2.20795 16.9219 4.92188 16.9219H11.2969Z" fill="#D8D6BF"/>
<path d="M12.7031 19.0781C12.7031 19.4658 12.3877 19.7812 12 19.7812C11.6123 19.7812 11.2969 19.4658 11.2969 19.0781V18.3281H7.07812V19.0781C7.07812 21.792 9.28608 24 12 24C14.7139 24 16.9219 21.792 16.9219 19.0781V12.7031H12.7031V19.0781Z" fill="#D8D6BF"/>
<path d="M19.0781 7.07812H12.7031V11.2969H19.0781C19.4658 11.2969 19.7812 11.6123 19.7812 12C19.7812 12.3877 19.4658 12.7031 19.0781 12.7031H18.3281V16.9219H19.0781C21.792 16.9219 24 14.7139 24 12C24 9.28608 21.792 7.07812 19.0781 7.07812Z" fill="#D8D6BF"/>
</g>
<defs>
<clipPath id="clip0_3995_2522">
<rect width="24" height="24" fill="white"/>
</clipPath>
</defs>
</svg>
