<svg width="24" height="24" viewBox="0 0 24 24" fill="none" xmlns="http://www.w3.org/2000/svg">
<path d="M2.29188 14.944C2.26388 15.048 2.27588 15.156 2.33188 15.248L4.35188 18.748C4.46388 18.94 4.70788 19.004 4.89988 18.896L9.57988 16.192V21.6C9.57988 21.82 9.75988 22 9.97988 22H14.0239C14.2439 22 14.4239 21.82 14.4239 21.6V16.192L19.1039 18.896C19.1495 18.9226 19.1999 18.9398 19.2523 18.9467C19.3046 18.9537 19.3578 18.9501 19.4088 18.9364C19.4597 18.9226 19.5075 18.8989 19.5492 18.8665C19.5909 18.8342 19.6258 18.7939 19.6519 18.748L21.6719 15.248C21.6982 15.2028 21.7154 15.1529 21.7224 15.1011C21.7295 15.0493 21.7262 14.9966 21.7128 14.9461C21.6995 14.8956 21.6762 14.8482 21.6445 14.8066C21.6128 14.7651 21.5731 14.7302 21.5279 14.704L16.8439 12L21.5279 9.296C21.6187 9.24159 21.6847 9.15377 21.7116 9.05135C21.7385 8.94893 21.7242 8.84004 21.6719 8.748L19.6519 5.248C19.6255 5.20242 19.5903 5.16251 19.5485 5.13058C19.5066 5.09864 19.4588 5.07531 19.4079 5.06192C19.3569 5.04854 19.3038 5.04536 19.2517 5.05258C19.1995 5.05981 19.1493 5.07728 19.1039 5.104L14.4239 7.804V2.4C14.4239 2.18 14.2439 2 14.0239 2H9.97988C9.75988 2 9.57988 2.18 9.57988 2.4V7.804L4.89988 5.104C4.85449 5.07728 4.80426 5.05981 4.75209 5.05258C4.69992 5.04536 4.64684 5.04854 4.5959 5.06192C4.54496 5.07531 4.49717 5.09864 4.45529 5.13058C4.41341 5.16251 4.37827 5.20242 4.35188 5.248L2.33188 8.748C2.27588 8.84 2.26388 8.952 2.29188 9.052C2.31988 9.156 2.38388 9.244 2.47588 9.296L7.15988 12L2.47588 14.704C2.38521 14.7565 2.31904 14.8428 2.29188 14.944Z" fill="#D8D6BF"/>
</svg>
