<svg width="17" height="8" viewBox="0 0 17 8" fill="none" xmlns="http://www.w3.org/2000/svg">
<path d="M16.8536 3.32833C17.0488 3.52359 17.0488 3.84018 16.8536 4.03544L13.6716 7.21742C13.4763 7.41268 13.1597 7.41268 12.9645 7.21742C12.7692 7.02216 12.7692 6.70557 12.9645 6.51031L15.7929 3.68188L12.9645 0.853457C12.7692 0.658195 12.7692 0.341613 12.9645 0.146351C13.1597 -0.0489116 13.4763 -0.0489116 13.6716 0.146351L16.8536 3.32833ZM0.5 4.18188C0.223858 4.18188 -2.41411e-08 3.95803 0 3.68188C2.41411e-08 3.40574 0.223858 3.18188 0.5 3.18188L0.5 4.18188ZM16.5 4.18188L0.5 4.18188L0.5 3.18188L16.5 3.18188L16.5 4.18188Z" fill="currentColor"/>
</svg>
