<svg width="24" height="24" viewBox="0 0 24 24" fill="none" xmlns="http://www.w3.org/2000/svg">
<path d="M7.99992 8.00001L8.51129 8.54864L8.922 8.16583L8.6704 7.66391L7.99992 8.00001ZM4.99225 2.00001L5.66272 1.66391C5.56076 1.46051 5.37197 1.31439 5.1495 1.26668C4.92703 1.21897 4.69493 1.27484 4.51853 1.41856L4.99225 2.00001ZM15.9996 16.0001L16.3357 15.3296L15.8338 15.078L15.451 15.4887L15.9996 16.0001ZM21.9996 19.0078L22.5811 19.4815C22.7248 19.3051 22.7807 19.073 22.733 18.8505C22.6853 18.6281 22.5391 18.4393 22.3357 18.3373L21.9996 19.0078ZM1.35262 7.71938C1.64428 9.16467 2.13025 10.5909 3.11977 12.3156L4.42084 11.5692C3.51355 9.98778 3.0836 8.71414 2.82303 7.4229L1.35262 7.71938ZM4.28168 12.491L8.51129 8.54864L7.48855 7.45138L3.25893 11.3938L4.28168 12.491ZM8.6704 7.66391L5.66272 1.66391L4.32177 2.33611L7.32944 8.33611L8.6704 7.66391ZM4.51853 1.41856C3.00637 2.65053 0.736517 4.66103 1.35262 7.71938L2.82303 7.4229C2.40321 5.33892 3.88176 3.87214 5.46597 2.58146L4.51853 1.41856ZM3.11977 12.3156C4.1157 14.0515 5.3917 15.695 6.84906 17.1513L7.90972 16.0906C6.53974 14.7216 5.34638 13.1824 4.42084 11.5692L3.11977 12.3156ZM16.5767 21.177C15.2855 20.9164 14.0119 20.4865 12.4305 19.5792L11.684 20.8803C13.4087 21.8698 14.8347 22.3557 16.28 22.6474L16.5767 21.177ZM12.6059 20.7411L16.5483 16.5115L15.451 15.4887L11.5086 19.7184L12.6059 20.7411ZM15.6635 16.6706L21.6635 19.6783L22.3357 18.3373L16.3357 15.3296L15.6635 16.6706ZM21.4182 18.5341C20.1275 20.1183 18.6607 21.5968 16.5767 21.177L16.28 22.6474C19.3383 23.2635 21.3491 20.9937 22.5811 19.4815L21.4182 18.5341ZM12.4305 19.5792C10.8173 18.6537 9.27875 17.4606 7.90972 16.0906L6.84906 17.1513C8.30532 18.6086 9.94807 19.8843 11.684 20.8803L12.4305 19.5792Z" fill="#FEFCE1"/>
</svg>
