<svg width="32" height="32" viewBox="0 0 32 32" fill="none" xmlns="http://www.w3.org/2000/svg">
<path d="M5.68753 30.125H4.75004C4.23185 30.125 3.81254 30.5443 3.81254 31.0625C3.81254 31.5807 4.23185 32 4.75004 32H27.25C27.7681 32 28.1874 31.5807 28.1874 31.0625C28.1874 30.5443 27.7681 30.125 27.25 30.125H26.3125C26.3125 29.0894 25.473 28.25 24.4375 28.25H7.56253C6.52697 28.25 5.68753 29.0894 5.68753 30.125ZM5.68753 22.5C8.78933 22.5 11.3125 19.9769 11.3125 16.8751V15.9432C11.3126 15.9424 11.3125 15.9417 11.3125 15.9409V15.9376C11.3125 15.8904 11.2451 15.5885 11.2402 15.5769L11.2395 15.5751L7.09365 5.62516H11.4074C11.8429 7.76209 13.7365 9.37514 16 9.37514C18.2635 9.37514 20.157 7.76209 20.5926 5.62516H24.9063L20.7598 15.5769C20.7548 15.5886 20.6875 15.8905 20.6875 15.9376V15.9409C20.6875 15.9417 20.6873 15.9424 20.6875 15.9432V16.8751C20.6875 19.9769 23.2107 22.5001 26.3125 22.5001C29.4143 22.5001 31.9999 19.9769 31.9999 16.8751V15.9432C32.0001 15.9424 31.9999 15.9417 31.9999 15.9409V15.9376C31.9999 15.8905 31.9326 15.5886 31.9276 15.5769L31.9269 15.5751L27.6996 5.57979C29.0361 5.36291 30.0624 4.20973 30.0624 2.81273C30.0624 1.26186 28.8008 0.000244141 27.25 0.000244141C26.7318 0.000244141 26.3125 0.419555 26.3125 0.937741C26.3125 1.45593 26.7318 1.87524 27.25 1.87524C27.7672 1.87524 28.1874 2.29549 28.1874 2.81273C28.1874 3.32998 27.7672 3.75023 27.25 3.75023H4.75004C4.23279 3.75023 3.81254 3.32998 3.81254 2.81273C3.81254 2.29549 4.23279 1.87524 4.75004 1.87524C5.26822 1.87524 5.68753 1.45593 5.68753 0.937741C5.68753 0.419555 5.26822 0.000244141 4.75004 0.000244141C3.19917 0.000244141 1.93755 1.26186 1.93755 2.81273C1.93755 4.20973 2.96386 5.36291 4.30041 5.57979L0.0723678 15.5768C0.0674303 15.5885 5.55553e-05 15.8904 5.55553e-05 15.9375V15.9408C5.55553e-05 15.9416 -6.94442e-05 15.9423 5.55553e-05 15.9431V16.875C5.55553e-05 19.9769 2.58573 22.5 5.68753 22.5ZM29.6563 15.0001H23.0311L26.3125 7.12472L29.6563 15.0001ZM5.68753 7.12472L8.9689 15.0001H2.34367L5.68753 7.12472Z" fill="#FEFCE1"/>
<path d="M16 11.2498C15.3441 11.2498 14.7231 11.1238 14.125 10.9438V22.4998H11.3125C10.2769 22.4998 9.4375 23.4018 9.4375 24.4373V26.3748H22.5625V24.4373C22.5625 23.4018 21.7231 22.4998 20.6875 22.4998H17.875V10.9438C17.2769 11.1238 16.6559 11.2498 16 11.2498Z" fill="#FEFCE1"/>
<path d="M16 3.75C17.0355 3.75 17.875 2.91053 17.875 1.875C17.875 0.839466 17.0355 0 16 0C14.9645 0 14.125 0.839466 14.125 1.875C14.125 2.91053 14.9645 3.75 16 3.75Z" fill="#FEFCE1"/>
</svg>
