<svg width="74" height="74" viewBox="0 0 74 74" fill="none" xmlns="http://www.w3.org/2000/svg">
<g clip-path="url(#clip0_3952_1977)">
<path d="M37 0.00170898C16.5676 0.00170898 0 16.5661 0 37.0001C0 57.4341 16.566 73.9985 37 73.9985C57.4356 73.9985 74 57.4341 74 37.0001C74 16.5661 57.4356 0.00170898 37 0.00170898ZM37 11.0647C40.2457 11.0644 43.3586 12.3536 45.6538 14.6485C47.949 16.9434 49.2386 20.0561 49.2388 23.3018C49.239 26.5475 47.9499 29.6604 45.6549 31.9556C43.36 34.2508 40.2473 35.5404 37.0016 35.5406C33.7559 35.5408 30.643 34.2517 28.3478 31.9568C26.0526 29.6619 24.763 26.5492 24.7628 23.3034C24.7626 20.0577 26.0518 16.9449 28.3467 14.6496C30.6416 12.3544 33.7543 11.0649 37 11.0647ZM36.9919 64.3251C30.5083 64.3323 24.2361 62.0194 19.3094 57.8047C18.736 57.3154 18.2755 56.7077 17.9596 56.0234C17.6437 55.3391 17.4798 54.5944 17.4794 53.8407C17.4794 46.9871 23.0263 41.502 29.8815 41.502H44.1218C50.9786 41.502 56.5044 46.9871 56.5044 53.8407C56.5048 54.5942 56.3416 55.3388 56.0259 56.0229C55.7102 56.7071 55.2496 57.3145 54.676 57.803C49.7495 62.0195 43.4764 64.3331 36.9919 64.3251Z" fill="#D8D6BF"/>
</g>
<defs>
<clipPath id="clip0_3952_1977">
<rect width="74" height="74" fill="white"/>
</clipPath>
</defs>
</svg>
