<svg width="17" height="8" viewBox="0 0 17 8" fill="none" xmlns="http://www.w3.org/2000/svg">
<path d="M0.146447 3.32842C-0.0488156 3.52369 -0.0488155 3.84027 0.146447 4.03553L3.32843 7.21751C3.52369 7.41277 3.84027 7.41277 4.03553 7.21751C4.2308 7.02225 4.2308 6.70567 4.03553 6.5104L1.20711 3.68198L4.03553 0.853549C4.2308 0.658287 4.2308 0.341704 4.03553 0.146442C3.84027 -0.0488201 3.52369 -0.04882 3.32843 0.146442L0.146447 3.32842ZM16.5 4.18197C16.7761 4.18197 17 3.95812 17 3.68197C17 3.40583 16.7761 3.18197 16.5 3.18197L16.5 4.18197ZM0.5 4.18198L16.5 4.18197L16.5 3.18197L0.5 3.18198L0.5 4.18198Z" fill="#0E100F"/>
</svg>
