<svg width="20" height="20" viewBox="0 0 20 20" fill="none" xmlns="http://www.w3.org/2000/svg">
<path d="M18.3337 9.63889C18.3337 14.0415 14.6022 17.6112 10.0003 17.6112C9.45923 17.6118 8.91969 17.5618 8.38817 17.462C8.0056 17.3902 7.81431 17.3542 7.68076 17.3746C7.54722 17.395 7.35797 17.4957 6.97948 17.6969C5.90877 18.2663 4.66029 18.4674 3.45958 18.2441C3.91594 17.6828 4.22761 17.0093 4.36514 16.2873C4.44847 15.8457 4.24199 15.4166 3.93273 15.1025C2.5281 13.6762 1.66699 11.7542 1.66699 9.63889C1.66699 5.23627 5.39847 1.66663 10.0003 1.66663C14.6022 1.66663 18.3337 5.23627 18.3337 9.63889Z" stroke="#FEFCE1" stroke-width="1.5" stroke-linejoin="round"/>
<path d="M9.99659 10H10.0041M13.3262 10H13.3337M6.66699 10H6.67447" stroke="#FEFCE1" stroke-width="2" stroke-linecap="round" stroke-linejoin="round"/>
</svg>
